{
  "accessors": [
    {
      "bufferView": 2,
      "componentType": 5126,
      "count": 4649,
      "max": [
        462.3703308105469,
        166.3438720703125,
        280.03106689453125
      ],
      "min": [
        -951.8570556640625,
        -171.89111328125,
        -604.7576293945313
      ],
      "type": "VEC3"
    },
    {
      "bufferView": 2,
      "byteOffset": 55788,
      "componentType": 5126,
      "count": 4649,
      "max": [
        0.9981675148010254,
        0.9999954700469971,
        0.9999628067016602
      ],
      "min": [
        -0.999985933303833,
        -0.9998527765274048,
        -0.9999856948852539
      ],
      "type": "VEC3"
    },
    {
      "bufferView": 3,
      "componentType": 5126,
      "count": 4649,
      "max": [
        1.0,
        0.9999997615814209,
        0.9989311695098877,
        1.0
      ],
      "min": [
        -0.9999937415122986,
        -0.9997818470001221,
        -0.9997519254684448,
        -1.0
      ],
      "type": "VEC4"
    },
    {
      "bufferView": 1,
      "componentType": 5126,
      "count": 4649,
      "max": [
        0.7002779841423035,
        0.9998909831047058
      ],
      "min": [
        0.0,
        0.0
      ],
      "type": "VEC2"
    },
    {
      "bufferView": 0,
      "componentType": 5125,
      "count": 23142,
      "type": "SCALAR"
    },
    {
      "bufferView": 2,
      "byteOffset": 111576,
      "componentType": 5126,
      "count": 63,
      "max": [
        0.9510578513145447,
        1.0,
        0.9999999403953552
      ],
      "min": [
        -0.9510578513145447,
        -1.0,
        -0.9999999403953552
      ],
      "type": "VEC3"
    },
    {
      "bufferView": 2,
      "byteOffset": 112332,
      "componentType": 5126,
      "count": 63,
      "max": [
        0.9510607719421387,
        1.0,
        1.0
      ],
      "min": [
        -0.9510607719421387,
        -1.0,
        -1.0
      ],
      "type": "VEC3"
    },
    {
      "bufferView": 1,
      "byteOffset": 37192,
      "componentType": 5126,
      "count": 63,
      "max": [
        1.0,
        0.47238200902938843
      ],
      "min": [
        0.0,
        0.0
      ],
      "type": "VEC2"
    },
    {
      "bufferView": 0,
      "byteOffset": 92568,
      "componentType": 5125,
      "count": 240,
      "type": "SCALAR"
    },
    {
      "bufferView": 2,
      "byteOffset": 113088,
      "componentType": 5126,
      "count": 63,
      "max": [
        0.9510578513145447,
        1.0,
        0.9999999403953552
      ],
      "min": [
        -0.9510578513145447,
        -1.0,
        -0.9999999403953552
      ],
      "type": "VEC3"
    },
    {
      "bufferView": 2,
      "byteOffset": 113844,
      "componentType": 5126,
      "count": 63,
      "max": [
        0.9510607719421387,
        1.0,
        1.0
      ],
      "min": [
        -0.9510607719421387,
        -1.0,
        -1.0
      ],
      "type": "VEC3"
    },
    {
      "bufferView": 1,
      "byteOffset": 37696,
      "componentType": 5126,
      "count": 63,
      "max": [
        1.0,
        0.47238200902938843
      ],
      "min": [
        0.0,
        0.0
      ],
      "type": "VEC2"
    },
    {
      "bufferView": 0,
      "byteOffset": 93528,
      "componentType": 5125,
      "count": 240,
      "type": "SCALAR"
    }
  ],
  "asset": {
    "extras": {
      "author": "Kent MORI @rojohaku (https://sketchfab.com/Memento)",
      "license": "CC-BY-NC-4.0 (http://creativecommons.org/licenses/by-nc/4.0/)",
      "source": "https://sketchfab.com/3d-models/nsmt-m32011-agile-wallaby-f4ac8c0466a24ec787b13cb4ac26b0d6",
      "title": "NSMT-M32011 Agile wallaby スナイロワラビー"
    },
    "generator": "Sketchfab-12.67.0",
    "version": "2.0"
  },
  "bufferViews": [
    {
      "buffer": 0,
      "byteLength": 94488,
      "name": "floatBufferViews",
      "target": 34963
    },
    {
      "buffer": 0,
      "byteLength": 38200,
      "byteOffset": 94488,
      "byteStride": 8,
      "name": "floatBufferViews",
      "target": 34962
    },
    {
      "buffer": 0,
      "byteLength": 114600,
      "byteOffset": 132688,
      "byteStride": 12,
      "name": "floatBufferViews",
      "target": 34962
    },
    {
      "buffer": 0,
      "byteLength": 74384,
      "byteOffset": 247288,
      "byteStride": 16,
      "name": "floatBufferViews",
      "target": 34962
    }
  ],
  "buffers": [
    {
      "byteLength": 321672,
      "uri": "scene.bin"
    }
  ],
  "extensionsUsed": [
    "KHR_materials_clearcoat",
    "KHR_materials_transmission"
  ],
  "images": [
    {
      "uri": "textures/M32011_RedKangaroo_5KforSK01_baseColor.jpeg"
    },
    {
      "uri": "textures/M32011_RedKangaroo_5KforSK01_normal.jpeg"
    }
  ],
  "materials": [
    {
      "alphaMode": "BLEND",
      "doubleSided": true,
      "extensions": {
        "KHR_materials_clearcoat": {
          "clearcoatFactor": 1.0,
          "clearcoatRoughnessFactor": 0.04
        },
        "KHR_materials_transmission": {
          "transmissionFactor": 1.0
        }
      },
      "name": "material_0",
      "pbrMetallicRoughness": {
        "baseColorFactor": [
          1.0,
          1.0,
          1.0,
          0.25
        ],
        "metallicFactor": 0.0,
        "roughnessFactor": 0.6
      }
    },
    {
      "doubleSided": true,
      "name": "M32011_RedKangaroo_5KforSK01",
      "normalTexture": {
        "index": 1
      },
      "pbrMetallicRoughness": {
        "baseColorTexture": {
          "index": 0
        },
        "metallicFactor": 0.0
      }
    }
  ],
  "meshes": [
    {
      "name": "Object_0",
      "primitives": [
        {
          "attributes": {
            "NORMAL": 1,
            "POSITION": 0,
            "TANGENT": 2,
            "TEXCOORD_0": 3
          },
          "indices": 4,
          "material": 1,
          "mode": 4
        }
      ]
    },
    {
      "name": "Object_1",
      "primitives": [
        {
          "attributes": {
            "NORMAL": 6,
            "POSITION": 5,
            "TEXCOORD_0": 7
          },
          "indices": 8,
          "material": 0,
          "mode": 4
        }
      ]
    },
    {
      "name": "Object_2",
      "primitives": [
        {
          "attributes": {
            "NORMAL": 10,
            "POSITION": 9,
            "TEXCOORD_0": 11
          },
          "indices": 12,
          "material": 0,
          "mode": 4
        }
      ]
    }
  ],
  "nodes": [
    {
      "children": [
        1
      ],
      "matrix": [
        0.0010000000474974513,
        0.0,
        0.0,
        0.0,
        0.0,
        2.220446154715841e-19,
        -0.0010000000474974513,
        0.0,
        0.0,
        0.0010000000474974513,
        2.220446154715841e-19,
        0.0,
        0.0,
        0.0,
        0.0,
        1.0
      ],
      "name": "Sketchfab_model"
    },
    {
      "children": [
        2
      ],
      "name": "root"
    },
    {
      "children": [
        3
      ],
      "matrix": [
        1.0,
        0.0,
        0.0,
        0.0,
        0.0,
        2.220446049250313e-16,
        1.0,
        0.0,
        0.0,
        -1.0,
        2.220446049250313e-16,
        0.0,
        0.0,
        0.0,
        0.0,
        1.0
      ],
      "name": "GLTF_SceneRootNode"
    },
    {
      "children": [
        4,
        5,
        7
      ],
      "matrix": [
        -8.940697071579962e-08,
        2.9802316170446375e-08,
        0.9999999999999956,
        0.0,
        -0.9999999999999849,
        -1.4901161549119024e-07,
        -8.940696627490752e-08,
        0.0,
        1.4901161282665498e-07,
        -0.9999999999999885,
        2.980232949312267e-08,
        0.0,
        0.0,
        0.0,
        0.0,
        1.0
      ],
      "name": "M32011_RedKangaroo_5KforSK01_2"
    },
    {
      "mesh": 0,
      "name": "Object_4"
    },
    {
      "children": [
        6
      ],
      "matrix": [
        10.504551887512207,
        0.0,
        -0.0,
        0.0,
        0.0,
        -1.7709350586474057e-06,
        -10.504551887512058,
        0.0,
        0.0,
        10.504551887512058,
        -1.7709350586474057e-06,
        0.0,
        325.6163024902344,
        -16.817668914794922,
        -512.593994140625,
        1.0
      ],
      "name": "Icosphere_0"
    },
    {
      "mesh": 1,
      "name": "Object_6"
    },
    {
      "children": [
        8
      ],
      "matrix": [
        10.504551887512207,
        0.0,
        -0.0,
        0.0,
        0.0,
        -1.7709350586474057e-06,
        -10.504551887512058,
        0.0,
        0.0,
        10.504551887512058,
        -1.7709350586474057e-06,
        0.0,
        313.005859375,
        24.425214767456055,
        -514.7875366210938,
        1.0
      ],
      "name": "Icosphere.001_1"
    },
    {
      "mesh": 2,
      "name": "Object_8"
    }
  ],
  "samplers": [
    {
      "magFilter": 9729,
      "minFilter": 9987,
      "wrapS": 10497,
      "wrapT": 10497
    }
  ],
  "scene": 0,
  "scenes": [
    {
      "name": "Sketchfab_Scene",
      "nodes": [
        0
      ]
    }
  ],
  "textures": [
    {
      "sampler": 0,
      "source": 0
    },
    {
      "sampler": 0,
      "source": 1
    }
  ]
}
